<svg xmlns="http://www.w3.org/2000/svg" width="12" height="12" viewBox="0 0 12 12">
  <g fill="none">
    <path fill="#FBBB00" d="M2.65945313,7.25175 L2.24175,8.81109375 L0.715054688,8.84339062 C0.258796875,7.99713281 0,7.02890625 0,6 C0,5.00505469 0.24196875,4.06680469 0.670875,3.24065625 L0.671203125,3.24065625 L2.03039063,3.48984375 L2.62579688,4.840875 C2.50117969,5.20417969 2.43325781,5.59417969 2.43325781,6 C2.43330469,6.4404375 2.51308594,6.86242969 2.65945313,7.25175 Z"/>
    <path fill="#518EF8" d="M11.8951641,4.879125 C11.9640703,5.24207813 12,5.61691406 12,6 C12,6.4295625 11.9548359,6.84857813 11.8687969,7.25275781 C11.5767187,8.62814063 10.8135234,9.829125 9.75628125,10.6790156 L9.75595312,10.6786875 L8.04398437,10.5913359 L7.8016875,9.07879688 C8.50321875,8.667375 9.05146875,8.02352344 9.34026562,7.25275781 L6.13190625,7.25275781 L6.13190625,4.879125 L9.38707031,4.879125 L11.8951641,4.879125 L11.8951641,4.879125 Z"/>
    <path fill="#28B446" d="M9.75592969,10.6786875 L9.75625781,10.6790156 C8.72803125,11.5054922 7.42185938,12 6,12 C3.71505469,12 1.72846875,10.7228672 0.715054687,8.84341406 L2.65945312,7.25177344 C3.16614844,8.60407031 4.47065625,9.56671875 6,9.56671875 C6.65735156,9.56671875 7.27319531,9.38901563 7.80164062,9.07879688 L9.75592969,10.6786875 Z"/>
    <path fill="#F14336" d="M9.82978125,1.3813125 L7.88603906,2.972625 C7.339125,2.63076562 6.692625,2.43328125 6,2.43328125 C4.43603906,2.43328125 3.10713281,3.44008594 2.62582031,4.840875 L0.671203125,3.24065625 L0.670875,3.24065625 C1.66945312,1.31538281 3.68109375,0 6,0 C7.45582031,0 8.79065625,0.518578125 9.82978125,1.3813125 Z"/>
  </g>
</svg>
