<?xml version="1.0" standalone="no"?>
<!DOCTYPE svg PUBLIC "-//W3C//DTD SVG 20010904//EN"
 "http://www.w3.org/TR/2001/REC-SVG-20010904/DTD/svg10.dtd">
<svg version="1.0" xmlns="http://www.w3.org/2000/svg"
 width="1500.000000pt" height="320.000000pt" viewBox="0 0 1200.000000 320.000000"
 preserveAspectRatio="xMidYMid meet" fill="#ffffff">

<g transform="translate(0.000000,320.000000) scale(0.100000,-0.100000)"
fill="#000000" stroke="none">
<path d="M2725 2415 c-295 -54 -466 -269 -427 -536 20 -134 91 -234 215 -300
34 -18 135 -59 225 -90 223 -78 279 -124 268 -222 -9 -84 -56 -128 -158 -147
-103 -20 -249 28 -344 114 l-49 43 -120 -125 -120 -125 45 -39 c59 -51 205
-123 305 -150 107 -28 328 -31 425 -5 203 54 343 189 381 368 6 28 9 95 7 148
-3 86 -7 103 -38 159 -39 73 -115 146 -195 186 -29 15 -129 54 -221 86 -181
64 -230 93 -253 154 -12 32 -12 41 4 82 21 56 68 89 148 105 94 19 218 -18
300 -91 19 -16 37 -30 39 -30 3 0 55 54 117 120 127 136 125 125 33 186 -156
104 -385 147 -587 109z"/>
<path d="M8320 2411 c-257 -56 -447 -203 -550 -426 -58 -123 -75 -207 -74
-365 1 -167 17 -238 85 -380 45 -91 63 -116 143 -196 81 -81 104 -98 196 -142
58 -28 134 -58 170 -67 92 -23 281 -31 377 -15 153 24 310 100 410 198 l43 42
-88 83 c-48 46 -105 100 -127 119 l-39 36 -51 -46 c-27 -25 -75 -57 -105 -71
-50 -23 -67 -26 -175 -26 -114 0 -123 2 -187 32 -334 158 -340 695 -10 862
158 80 358 59 475 -48 l43 -40 125 125 124 125 -50 45 c-64 57 -159 106 -270
140 -122 36 -337 43 -465 15z"/>
<path d="M1240 1840 l0 -550 195 0 195 0 0 550 0 550 -195 0 -195 0 0 -550z"/>
<path d="M4100 1621 l0 -771 185 0 185 0 0 289 0 288 163 6 c227 7 347 38 462
117 128 88 195 270 165 455 -23 144 -100 253 -224 314 -122 60 -154 64 -563
68 l-373 5 0 -771z m667 457 c159 -40 177 -242 30 -321 -36 -19 -61 -22 -184
-25 l-143 -4 0 181 0 181 126 0 c69 0 146 -5 171 -12z"/>
<path d="M9720 1620 l0 -770 535 0 535 0 0 155 0 155 -355 0 -355 0 0 165 0
165 320 0 320 0 0 145 0 145 -320 0 -320 0 0 150 0 150 340 0 340 0 0 155 0
155 -520 0 -520 0 0 -770z"/>
<path d="M5921 1603 c-245 -412 -452 -759 -460 -772 l-15 -24 903 6 c496 3
905 7 907 10 5 5 -878 1527 -886 1527 -3 0 -205 -336 -449 -747z m614 -176
c92 -158 165 -290 163 -293 -3 -2 -158 -3 -345 -2 l-341 3 175 293 c96 162
176 292 177 290 2 -2 78 -133 171 -291z"/>
</g>
</svg>
