<svg xmlns="http://www.w3.org/2000/svg" width="12" height="10" viewBox="0 0 12 10">
  <path fill="#03A9F4" d="M12,1.15425 C11.55375,1.35 11.07825,1.47975 10.5825,1.54275 C11.0925,1.23825 11.48175,0.75975 11.66475,0.183 C11.18925,0.4665 10.66425,0.66675 10.10475,0.7785 C9.65325,0.29775 9.00975,0 8.30775,0 C6.94575,0 5.84925,1.1055 5.84925,2.46075 C5.84925,2.65575 5.86575,2.84325 5.90625,3.02175 C3.861,2.922 2.05125,1.94175 0.8355,0.4485 C0.62325,0.81675 0.49875,1.23825 0.49875,1.692 C0.49875,2.544 0.9375,3.29925 1.5915,3.7365 C1.19625,3.729 0.8085,3.61425 0.48,3.4335 C0.48,3.441 0.48,3.45075 0.48,3.4605 C0.48,4.656 1.33275,5.649 2.451,5.87775 C2.25075,5.9325 2.0325,5.95875 1.806,5.95875 C1.6485,5.95875 1.4895,5.94975 1.34025,5.91675 C1.659,6.891 2.5635,7.60725 3.639,7.6305 C2.802,8.28525 1.73925,8.67975 0.58875,8.67975 C0.387,8.67975 0.1935,8.67075 -5.68434189e-14,8.646 C1.08975,9.34875 2.38125,9.75 3.774,9.75 C8.301,9.75 10.776,6 10.776,2.7495 C10.776,2.64075 10.77225,2.53575 10.767,2.4315 C11.25525,2.085 11.6655,1.65225 12,1.15425 Z"/>
</svg>
